<?xml version="1.0" encoding="UTF-8"?>
<svg id="Layer_1" xmlns="http://www.w3.org/2000/svg" version="1.1" viewBox="0 0 235.71 85.04">
  <!-- Generator: Adobe Illustrator 30.6.0, SVG Export Plug-In . SVG Version: 2.1.4 Build 109)  -->
  <defs>
    <style>
      .st0 {
        fill: #b7b7b8;
      }
    </style>
  </defs>
  <path class="st0" d="M41.81,42.87c-.04.06-.08.13-.13.19-2.02,2.47-4.06,4.92-6.25,7.24-1.77,1.89-3.63,3.68-5.65,5.3-1.64,1.31-3.37,2.49-5.25,3.43-1.36.68-2.78,1.21-4.27,1.54-1.38.3-2.77.42-4.18.33-.09,0-.18,0-.27,0-.99.04-1.98-.03-2.96-.18-2.4-.37-4.56-1.29-6.48-2.79-1.86-1.45-3.28-3.26-4.35-5.34-.89-1.73-1.47-3.56-1.77-5.48-.05-.34-.07-.69-.11-1.03-.02-.15-.01-.31-.14-.42v-1.47c.13-.11.13-.27.13-.42.02-.45.04-.9.08-1.35.1-1.21.29-2.4.52-3.59.78-3.87,2.06-7.58,3.67-11.18,2.31-5.18,5.21-10.01,8.75-14.45,1.98-2.48,4.14-4.78,6.57-6.83,1.93-1.63,4-3.07,6.27-4.2,1.57-.78,3.2-1.4,4.92-1.78.94-.21,1.9-.34,2.86-.38.23,0,.46.02.69.04,1.56.13,3.08.42,4.54,1,1.11.44,2.12,1.05,2.98,1.88,1.07,1.03,1.79,2.28,2.25,3.68.3.92.47,1.87.57,2.83.11,1.12.12,2.24.04,3.35-.18,2.46-.92,4.76-2.19,6.88-.92,1.53-2.05,2.89-3.34,4.13-1.55,1.48-3.27,2.75-5.09,3.88-2.24,1.4-4.6,2.57-7.02,3.63-2.86,1.25-5.79,2.33-8.76,3.32-1.85.62-3.72,1.2-5.59,1.76-.06.02-.12.04-.19.05-.16.03-.23.12-.25.29-.24,1.81-.38,3.63-.31,5.46.05,1.43.25,2.84.69,4.21.31.94.73,1.81,1.32,2.6.99,1.32,2.3,2.19,3.87,2.68.94.3,1.9.45,2.88.49.54.02,1.08-.09,1.6-.23.84-.22,1.63-.55,2.4-.94,1.35-.67,2.61-1.49,3.84-2.37,2.01-1.45,3.88-3.06,5.68-4.75,1.3-1.21,2.55-2.47,3.77-3.76.1-.1.2-.2.3-.3.11.09.21.18.32.28.48.45.95.9,1.44,1.34.52.48,1.05.95,1.57,1.42ZM30.68,6.05c-.89-.02-1.73.19-2.56.51-1.08.42-2.04,1.03-2.94,1.75-1.22.98-2.28,2.12-3.24,3.35-1.46,1.86-2.67,3.87-3.72,5.99-1.79,3.6-3.1,7.36-3.92,11.3-.12.55-.2,1.11-.3,1.67-.02.12.03.16.15.12.06-.02.12-.04.18-.06.75-.23,1.5-.47,2.25-.7,1.71-.52,3.41-1.05,5.08-1.69,1.97-.76,3.88-1.65,5.68-2.77,3.56-2.22,6.34-5.17,8.26-8.92.04-.08.08-.16.13-.24.37-.56.58-1.17.72-1.82.21-.99.26-1.99.14-2.99-.11-.9-.34-1.77-.76-2.57-.62-1.19-1.54-2.04-2.8-2.52-.75-.28-1.54-.41-2.34-.41Z"/>
  <path class="st0" d="M46.41,85.04c-.03-.07-.1-.06-.16-.08-.29-.06-.59-.1-.88-.18-1.09-.31-1.97-.93-2.63-1.85-.56-.77-.9-1.63-1.1-2.55-.27-1.17-.3-2.36-.18-3.56.1-1,.32-1.99.51-2.97.77-3.88,1.89-7.66,3.14-11.41,1.08-3.23,2.25-6.42,3.42-9.61.48-1.32.96-2.64,1.44-3.96.05-.13.08-.26.12-.39.04-.1.09-.2.13-.3.17-.48.34-.96.51-1.44.04-.13.08-.26.11-.39.04-.09.08-.18.11-.27.68-1.97,1.33-3.95,1.93-5.95.17-.57.36-1.14.5-1.71.2-.81.23-1.62.04-2.44-.1-.43-.26-.83-.54-1.18-.25-.31-.56-.52-.95-.61-.39-.09-.77,0-1.13.13-.41.16-.77.41-1.11.68-.39.32-.73.67-1.05,1.05-.82.97-1.65,1.93-2.46,2.9-.81.98-1.6,1.97-2.4,2.95-.06-.04-.13-.07-.19-.11-1.03-.76-2.04-1.53-3.03-2.33-.08-.06-.17-.11-.21-.21.77-.81,1.5-1.66,2.24-2.5.09-.1.18-.21.27-.31.32-.39.67-.77,1.06-1.1.46-.4.85-.87,1.25-1.33.75-.87,1.48-1.74,2.24-2.6.93-1.06,1.92-2.05,3.03-2.92.91-.72,1.89-1.33,2.96-1.78,1.39-.59,2.84-.82,4.34-.7.82.07,1.63.21,2.4.52,1.5.62,2.6,1.68,3.2,3.21.25.63.39,1.28.47,1.95.15,1.32.02,2.63-.19,3.93-.22,1.33-.63,2.61-1.04,3.88-.99,3.03-1.96,6.07-2.94,9.11-.04.12-.1.23-.09.36-.06.06-.07.13-.09.2-.35,1.09-.71,2.19-1.06,3.28-.02.06-.03.12-.04.18-.08.1-.1.23-.14.35-2.05,6.34-4.09,12.67-6.13,19.01-.25.79-.37,1.6-.32,2.43.02.28.07.54.17.8.24.61.73.93,1.39.93.33,0,.64-.08.95-.19.47-.17.9-.42,1.31-.71,2.34-1.64,4.39-3.59,6.19-5.8.52-.64,1.01-1.29,1.49-1.96.06-.09.13-.18.19-.26.1,0,.14.06.2.11.85.75,1.7,1.5,2.54,2.25.05.04.09.08.13.13.04.04.04.09.01.14-.03.05-.06.11-.09.16-1.6,2.63-3.39,5.12-5.48,7.39-1.59,1.71-3.32,3.26-5.27,4.55-1.58,1.05-3.26,1.9-5.09,2.45-.85.26-1.71.43-2.59.55-.08.01-.18,0-.23.08h-1.19Z"/>
  <path class="st0" d="M58.36,52.65c.01-.06.02-.12.04-.18.35-1.09.71-2.19,1.06-3.28.02-.07.03-.15.09-.2,1.58.04,3.09-.23,4.52-.92,2.46-1.18,4.02-3.11,4.74-5.73.27-1,.41-2.02.45-3.05.06-1.7-.1-3.38-.42-5.04-.53-2.82-1.41-5.53-2.46-8.19-.48-1.2-.99-2.39-1.53-3.56-.05-.11-.11-.22-.17-.35-.39.15-.77.29-1.17.38-3.12.69-6.15-1.21-6.94-4.23-.61-2.33.24-4.75,2.18-6.2.29-.21.3-.14.08-.48-.33-.51-.67-1.02-1-1.53-.07-.11-.14-.23-.21-.35h0c.11,0,.14.1.19.16.41.52.82,1.03,1.23,1.55.08.1.15.19.23.3.5-.28,1.01-.5,1.55-.64,3.08-.79,6.29,1.05,7.11,4.21.6,2.3-.24,4.69-2.11,6.12-.06.05-.12.09-.18.13-.08.05-.13.04-.18-.05-.17-.3-.34-.61-.51-.91-1.62-2.88-3.38-5.68-5.33-8.36-.08-.11-.16-.22-.24-.33-.12-.16-.12-.16-.32-.02-.02.08.05.13.09.19,1.99,3.13,3.8,6.36,5.4,9.7.18.39.13.35.5.16.15-.08.3-.18.45-.27.08.02.1.09.13.16,2.21,4.07,4.15,8.26,5.61,12.66.59,1.76,1.08,3.54,1.43,5.36.32,1.65.52,3.32.47,5-.04,1.19-.2,2.35-.59,3.48-.44,1.23-1.13,2.29-2.18,3.09-.54.41-1.1.76-1.71,1.06-1.07.52-2.2.85-3.38.99-.93.12-1.86.12-2.79.04-1.38-.12-2.72-.42-4.04-.86-.02,0-.05-.01-.07-.02Z"/>
  <path class="st0" d="M50.83,46.36c-.04.13-.07.26-.11.39-.17.48-.34.96-.51,1.44-.04.1-.09.2-.13.3-.12-.07-.23-.14-.35-.21-2.29-1.52-4.45-3.19-6.53-4.98-.11-.1-.21-.21-.35-.27-.51-.46-1.02-.91-1.52-1.37-.47-.43-.93-.87-1.39-1.3-.1-.09-.2-.18-.31-.27-.06-.12-.16-.19-.25-.27-1.94-1.88-3.79-3.85-5.56-5.89-.07-.08-.14-.17-.21-.26-.03-.04-.04-.09-.02-.14h0c.59.52,1.18,1.04,1.77,1.55,1.55,1.35,3.11,2.68,4.71,3.97.1.08.2.14.3.22.04.1.13.15.21.21.99.8,2,1.58,3.03,2.33.06.04.13.07.19.11.06.05.11.1.17.14,1.03.75,2.09,1.48,3.17,2.16,1.2.77,2.43,1.49,3.71,2.14Z"/>
  <path class="st0" d="M235.71,52.02c-.2,0-.41-.01-.61-.01-36.65,0-73.29,0-109.94,0-14.22,0-28.44,0-42.67,0-.12,0-.23,0-.35,0-.07,0-.17.02-.19-.08-.02-.1-.04-.2.02-.3.02-.03.06-.04.1-.04.1,0,.21,0,.31,0,50.96,0,101.91,0,152.87,0,.15,0,.3.04.45-.03v.46Z"/>
  <path class="st0" d="M90.4,32.78c-1.81,0-3.62,0-5.43,0-.36,0-.72-.03-1.06-.14-.97-.3-1.67-.93-2.19-1.77-.13-.21-.23-.43-.32-.65-.13-.3-.19-.61-.19-.93,0-1.51.02-3.03,0-4.54,0-.65.18-1.21.56-1.72.49-.65,1.11-1.13,1.87-1.43.24-.09.49-.15.75-.16.13,0,.26,0,.38,0,2.94,0,5.88.01,8.82,0,.74,0,1.35.25,1.9.7.35.28.66.61.88,1.01.15.26.23.54.23.84,0,.87,0,1.74,0,2.62,0,.26-.04.51-.12.76-.2.63-.64.97-1.29,1.03-.19.02-.38.01-.58.01-3.21,0-6.42,0-9.62,0-.58,0-.51-.09-.5.55,0,.31.13.57.33.8.21.23.45.38.77.36.12,0,.23,0,.35,0,3.34,0,6.67,0,10.01,0,.52,0,.47-.06.47.48,0,.59,0,1.18,0,1.77,0,.1,0,.21,0,.31,0,.07-.04.12-.12.12-.12,0-.23,0-.35,0-1.85,0-3.7,0-5.54,0ZM88.93,25.79c.17,0,.33,0,.5,0,1.23,0,2.46,0,3.69,0,.26,0,.26,0,.27-.25,0-.18,0-.36,0-.54.02-.35-.16-.58-.45-.74-.2-.11-.41-.12-.63-.12-2.17,0-4.34-.01-6.5-.02-.05,0-.1,0-.15,0-.27,0-.5.1-.7.28-.32.28-.48.62-.48,1.05,0,.33,0,.34.34.34,1.37,0,2.75,0,4.12,0Z"/>
  <path class="st0" d="M121.45,32.78c-1.84,0-3.67,0-5.51,0-.49,0-.97-.08-1.42-.29-.77-.36-1.36-.91-1.79-1.64-.11-.19-.2-.39-.29-.59-.14-.32-.21-.65-.21-1.01,0-1.5.02-3,0-4.5-.01-.74.24-1.35.7-1.9.35-.42.76-.76,1.24-1.03.48-.27.99-.4,1.54-.4,2.98,0,5.95.01,8.93,0,.61,0,1.14.17,1.62.5.47.32.87.72,1.15,1.22.13.24.21.5.21.77,0,.9,0,1.8,0,2.69,0,.26-.04.51-.13.76-.21.61-.63.95-1.27,1.01-.19.02-.38.01-.58.01-3.18,0-6.37,0-9.55,0-.08,0-.15,0-.23,0-.39,0-.36-.02-.37.39,0,.33.07.63.28.9.22.27.49.44.86.43.31-.01.62,0,.92,0,3.14,0,6.29,0,9.43,0,.48,0,.44-.05.44.42,0,.63,0,1.26,0,1.89,0,.09,0,.18,0,.27,0,.06-.04.09-.1.09-.12,0-.23,0-.35,0-1.85,0-3.7,0-5.54,0h0ZM119.96,25.79c1.23,0,2.46,0,3.7,0,.24,0,.48.03.72-.03.1-.25.02-.5.04-.76.03-.35-.15-.58-.45-.74-.21-.12-.44-.12-.67-.12-2.14,0-4.29-.01-6.43-.02-.08,0-.15,0-.23,0-.23,0-.43.08-.6.23-.35.28-.55.64-.54,1.1,0,.34,0,.34.34.34,1.37,0,2.75,0,4.12,0Z"/>
  <path class="st0" d="M182.97,36.43c-.14.07-.25.05-.34.05-1.17,0-2.34,0-3.5,0-.26,0-.42-.08-.59-.27-2.29-2.47-4.59-4.94-6.9-7.41-.4-.43-.21-.34-.78-.35-1.12,0-2.23,0-3.35,0-.09,0-.18,0-.27,0-.12,0-.15.03-.15.17,0,.1,0,.21,0,.31,0,1.17,0,2.33,0,3.5,0,.35.02.34-.33.34-.89,0-1.77,0-2.66,0-.06,0-.13,0-.19,0-.07,0-.12-.04-.12-.12,0-.08,0-.15,0-.23,0-2.1,0-4.21,0-6.31,0-.05,0-.1,0-.15,0-.2.02-.21.22-.22.1,0,.21,0,.31,0,3.12,0,6.24,0,9.36,0,.13,0,.26,0,.38,0,.24-.01.45-.1.63-.26.46-.4.34-1.09-.23-1.31-.14-.05-.29-.09-.45-.09-.13,0-.26,0-.38,0-3.13,0-6.26,0-9.39,0-.49,0-.43.05-.43-.43,0-.62,0-1.23,0-1.85,0-.09,0-.18,0-.27,0-.06.04-.09.1-.1.09,0,.18,0,.27,0,3.97,0,7.93,0,11.9,0,.77,0,1.36.29,1.83.88.29.37.42.79.42,1.25,0,.95,0,1.9,0,2.85,0,.18-.02.36-.06.53-.13.62-.5,1.02-1.1,1.23-.33.11-.67.16-1.02.2-.08.01-.15.01-.23.02-.06,0-.14,0-.17.07-.03.07.03.11.07.16.37.41.75.81,1.12,1.22,1.9,2.07,3.8,4.14,5.7,6.21.1.11.21.23.34.37Z"/>
  <path class="st0" d="M187.65,32.78c-1.39,0-2.77-.03-4.16,0-1.86.05-3.35-1.42-3.67-3.06-.04-.2-.04-.41-.04-.61,0-1.36,0-2.72,0-4.08,0-.85.29-1.58.82-2.22.34-.41.74-.75,1.2-1.01.43-.24.89-.38,1.39-.38,2.8,0,5.59,0,8.39,0,.98,0,1.81.4,2.53,1.06.52.48.91,1.04,1.05,1.75.06.3.11.61.11.91,0,1.4,0,2.79,0,4.19,0,.72-.23,1.36-.67,1.92-.39.5-.86.92-1.43,1.21-.38.2-.78.3-1.22.3-1.44-.01-2.87,0-4.31,0ZM187.59,29.86h0c.94,0,1.87,0,2.81,0,.29,0,.56-.04.82-.17.42-.2.7-.52.76-.99.02-.18.04-.36.05-.54,0-.42,0-.85,0-1.27,0-.33.01-.67,0-1-.04-.8-.48-1.52-1.5-1.67-.25-.04-.51-.05-.77-.05-1.53,0-3.05,0-4.58,0-.69,0-1.24.28-1.7.77-.24.25-.36.55-.36.9,0,.72,0,1.44,0,2.15,0,.26.04.51.13.75.23.65.64,1.11,1.53,1.1.1,0,.21,0,.31,0,.83,0,1.67,0,2.5,0Z"/>
  <path class="st0" d="M197.13,28.13c0-1.36.01-2.72,0-4.08-.01-.87.35-1.56.98-2.12.49-.44,1.08-.68,1.75-.71.4-.02.79-.01,1.19.06.4.07.76.24,1.08.47.27.2.52.42.74.67,1.85,2.18,3.7,4.36,5.55,6.54.07.08.13.16.21.23.19.18.43.23.68.19.14-.02.23-.1.27-.24.04-.15.04-.3.04-.46,0-.97,0-1.95,0-2.92,0-1.3,0-2.59,0-3.89,0-.1,0-.21,0-.31,0-.07.04-.12.11-.13.06,0,.13,0,.19,0,.89,0,1.77,0,2.66,0,.05,0,.1,0,.15,0,.09,0,.15.04.15.13,0,.06,0,.13,0,.19,0,2.8.01,5.59,0,8.39,0,1.17-.57,2.05-1.57,2.65-.36.22-.76.29-1.18.32-.46.04-.92,0-1.38-.1-.32-.06-.6-.21-.85-.42-.2-.16-.37-.35-.54-.55-1.03-1.25-2.06-2.49-3.09-3.74-.94-1.14-1.88-2.27-2.83-3.41-.07-.08-.13-.16-.21-.22-.2-.15-.41-.2-.65-.08-.15.07-.24.19-.24.36,0,.12,0,.23,0,.35,0,2.31,0,4.62,0,6.92,0,.1,0,.21,0,.31,0,.2-.02.22-.23.22-.94,0-1.87,0-2.81,0-.16,0-.18-.02-.18-.18,0-.1,0-.21,0-.31,0-1.38,0-2.77,0-4.15Z"/>
  <path class="st0" d="M228.16,21.43c1.49,0,2.98,0,4.47,0,.12,0,.23,0,.35,0,.07,0,.12.04.12.11,0,.81,0,1.62,0,2.42,0,.08-.04.12-.12.12-.12,0-.23,0-.35,0-2.27,0-4.54,0-6.82,0-.13,0-.26,0-.38,0-.79.1-1.3.56-1.64,1.24-.07.14-.09.29-.09.45,0,.86,0,1.72,0,2.58,0,.8.68,1.46,1.35,1.56.19.03.38.04.58.04,2.34,0,4.67,0,7.01,0,.09,0,.18,0,.27,0,.25,0,.26,0,.26.26,0,.77,0,1.54,0,2.31,0,.22,0,.22-.25.23-.05,0-.1,0-.15,0-2.77,0-5.55,0-8.32,0-.46,0-.93-.03-1.37-.16-1.26-.38-2.16-1.14-2.56-2.43-.08-.27-.13-.55-.13-.83,0-1.55,0-3.1,0-4.66,0-.59.17-1.11.51-1.58.45-.62,1.02-1.12,1.71-1.46.3-.15.62-.22.96-.22,1.53,0,3.05,0,4.58,0Z"/>
  <path class="st0" d="M136.94,21.43c1.49,0,2.98,0,4.47,0,.08,0,.15,0,.23,0,.21,0,.21.01.22.22,0,.74,0,1.49,0,2.23,0,.04,0,.08,0,.11,0,.06-.05.09-.1.09-.12,0-.23,0-.35,0-2.28,0-4.57,0-6.85,0-.13,0-.26,0-.38.01-.77.11-1.27.56-1.6,1.23-.08.16-.1.34-.1.53,0,.81,0,1.62,0,2.42-.01.79.6,1.62,1.57,1.68.13,0,.26,0,.38,0,2.36,0,4.72,0,7.08,0,.46,0,.42-.04.42.41,0,.69,0,1.39,0,2.08,0,.06,0,.13,0,.19,0,.07-.04.12-.12.12-.09,0-.18,0-.27,0-2.78,0-5.57,0-8.35,0-.54,0-1.08-.05-1.59-.24-1.17-.43-1.98-1.2-2.33-2.42-.07-.26-.11-.53-.11-.8,0-1.54,0-3.08,0-4.62,0-.58.17-1.11.51-1.58.44-.61.99-1.1,1.67-1.44.33-.17.67-.25,1.04-.25,1.53,0,3.05,0,4.58,0Z"/>
  <path class="st0" d="M127.17,47.46c-.1.07-.21.05-.31.05-2.62,0-5.23-.02-7.85,0-1.42.02-2.37-1.09-2.66-2.02-.05-.17-.08-.35-.07-.53,0-1.09,0-2.18,0-3.27,0-.47.15-.88.43-1.24.37-.48.85-.81,1.42-1.01.19-.07.4-.1.6-.1,2.17,0,4.34,0,6.5,0,.34,0,.66.09.95.27.34.21.63.48.87.8.18.23.27.49.27.79,0,.62,0,1.23,0,1.85,0,.29-.06.56-.21.81-.15.24-.36.4-.63.46-.21.05-.43.06-.65.06-2.14-.01-4.28-.02-6.43-.03-.1,0-.21,0-.31,0-.48,0-.52.04-.45.52.06.39.4.69.79.71.1,0,.21,0,.31,0,2.33,0,4.67,0,7,0,.49,0,.44-.04.44.43,0,.4,0,.79,0,1.19,0,.09,0,.18-.01.26ZM121.82,42.48c.88,0,1.77,0,2.65,0,.65,0,.53.11.55-.59,0-.21-.11-.36-.28-.47-.16-.1-.34-.11-.52-.11-1.54,0-3.08,0-4.62-.01-.05,0-.1,0-.15,0-.22,0-.39.09-.55.24-.24.23-.3.52-.27.85,0,.06.05.09.1.09.1,0,.21,0,.31,0,.92,0,1.85,0,2.77,0Z"/>
  <path class="st0" d="M201.56,47.51c-1.18,0-2.36,0-3.54,0-.12,0-.23,0-.35,0-1.36.04-2.31-1.08-2.61-2.03-.05-.17-.07-.35-.07-.53,0-1.08,0-2.15,0-3.23,0-.5.16-.93.47-1.31.37-.45.83-.76,1.37-.96.23-.09.47-.1.72-.1,1.26,0,2.51,0,3.77,0,.85,0,1.69,0,2.54,0,.46,0,.86.13,1.22.39.27.2.51.43.71.7.17.22.26.47.26.75,0,.63,0,1.26,0,1.88,0,.26-.06.51-.18.74-.15.28-.37.45-.68.52-.2.04-.41.05-.61.05-2.22-.01-4.44-.02-6.66-.03-.09,0-.18,0-.27,0-.29,0-.28,0-.29.31,0,.27.08.5.27.69.14.14.3.23.51.23.1,0,.21,0,.31,0,2.35,0,4.7,0,7.04,0,.46,0,.42-.04.42.41,0,.41,0,.82,0,1.23,0,.28,0,.28-.3.29-.21,0-.41,0-.62,0-1.14,0-2.28,0-3.43,0ZM197.36,42.48h.38c1.87,0,3.74,0,5.62,0,.06,0,.13,0,.19,0,.16,0,.18-.02.19-.17,0-.13,0-.26,0-.38,0-.26-.13-.43-.35-.54-.12-.06-.25-.07-.37-.07-1.59,0-3.18-.01-4.77-.02-.03,0-.05,0-.08,0-.42-.02-.8.44-.81.78,0,.11,0,.23,0,.4Z"/>
  <path class="st0" d="M138.14,44.4c.13.14.2.22.28.31,1.57,1.7,3.13,3.39,4.7,5.09.09.09.24.15.22.33-.12.05-.25.03-.37.03-.73,0-1.46,0-2.19,0-.41,0-.31.05-.62-.28-1.59-1.71-3.19-3.41-4.77-5.12-.24-.26-.47-.38-.82-.36-.72.03-1.44,0-2.16,0-.1,0-.21,0-.31,0-.06,0-.1.03-.1.09,0,.1,0,.21,0,.31,0,.78,0,1.56,0,2.35,0,.09,0,.18-.01.27,0,.03-.04.06-.07.07-.03.01-.08.01-.11.01-.65,0-1.31,0-1.96,0-.16,0-.17-.02-.18-.18,0-.1,0-.21,0-.31,0-1.36,0-2.72,0-4.08,0-.1,0-.21,0-.31,0-.16.01-.17.18-.17.1,0,.21,0,.31,0,2.21,0,4.41,0,6.62,0,.22,0,.44-.01.63-.14.11-.08.19-.17.23-.29.1-.3-.02-.58-.32-.69-.17-.07-.35-.08-.53-.08-1.13,0-2.26,0-3.39,0-1.12,0-2.23,0-3.35,0-.1,0-.21,0-.31,0-.03,0-.06-.04-.07-.07-.01-.02,0-.05,0-.08,0-.53,0-1.05,0-1.58,0-.1.05-.14.14-.14.1,0,.21,0,.31,0,2.72,0,5.44,0,8.16,0,.09,0,.18,0,.27,0,.72-.03,1.51.57,1.52,1.51,0,.69,0,1.39,0,2.08,0,.1-.02.2-.03.31-.03.29-.17.5-.38.69-.12.12-.26.21-.43.24-.2.05-.4.08-.6.12-.13.02-.25.04-.46.07Z"/>
  <path class="st0" d="M159.28,47.5c-.96,0-1.93,0-2.89,0-.26,0-.51,0-.76-.07-1.22-.31-1.99-1.58-1.96-2.52.03-1,.01-2,0-3,0-.67.26-1.22.7-1.7.19-.21.41-.39.65-.53.31-.19.65-.31,1.02-.3.14,0,.28,0,.42,0,1.84,0,3.67,0,5.51,0,.87,0,1.59.32,2.18.96.42.46.6,1,.62,1.61.01.44,0,.87,0,1.31,0,.54-.01,1.08,0,1.62.03.9-.38,1.58-1.05,2.12-.13.1-.28.19-.42.27-.29.17-.61.25-.95.25-1.03,0-2.05,0-3.08,0ZM159.27,45.41h0c.68,0,1.36,0,2.04,0,.56,0,1.16-.29,1.15-1.15,0-.17,0-.33,0-.5,0-.38,0-.77,0-1.15,0-.55-.37-1.14-1.05-1.23-.18-.02-.36-.04-.54-.04-1.1,0-2.21,0-3.31,0-.53,0-.94.22-1.28.6-.14.16-.21.34-.21.56,0,.55,0,1.1,0,1.65,0,.28.09.53.22.77.17.29.42.44.74.49.11.02.23.01.35.01.63,0,1.26,0,1.89,0Z"/>
  <path class="st0" d="M106.01,32.78c-1.48,0-2.95,0-4.43,0-.61,0-1.14-.17-1.62-.52-.62-.45-1.11-1.02-1.47-1.71-.14-.28-.22-.57-.22-.89,0-2.63,0-5.26,0-7.89,0-.36-.01-.35.32-.35.83,0,1.67,0,2.5,0,.06,0,.13,0,.19,0,.06,0,.1.04.1.09,0,.12,0,.23,0,.35,0,2.01,0,4.03,0,6.04,0,.12,0,.23,0,.35.02.87.69,1.58,1.49,1.8.18.05.36.04.54.04,2.32,0,4.65,0,6.97,0,.59,0,.51-.07.52.5,0,.58,0,1.15,0,1.73,0,.09,0,.18,0,.27,0,.15-.03.17-.19.17-.1,0-.21,0-.31,0-1.48,0-2.95,0-4.43,0Z"/>
  <path class="st0" d="M87,44.15c0-.97.02-1.95,0-2.92-.03-.85.75-1.87,1.74-2,.36-.05.72-.05,1.07.02.51.09.91.39,1.26.76.12.13.23.27.35.41,1.23,1.45,2.45,2.9,3.68,4.35.13.15.26.28.47.3.22.02.34-.06.37-.28.01-.13.01-.26.01-.38,0-1.51,0-3.03,0-4.54,0-.1,0-.21,0-.31,0-.14.04-.17.19-.17.49,0,.97,0,1.46,0,.18,0,.36,0,.54,0,.09,0,.14.04.15.14,0,.06,0,.13,0,.19,0,1.96,0,3.92,0,5.88,0,.76-.32,1.36-.93,1.8-.23.17-.49.27-.77.32-.4.08-.79.05-1.19-.02-.23-.04-.44-.14-.62-.29-.19-.15-.36-.33-.51-.52-1.34-1.62-2.68-3.24-4.02-4.86-.08-.1-.17-.19-.26-.28-.07-.07-.16-.12-.27-.13-.27-.03-.41.09-.42.36,0,.09,0,.18,0,.27,0,1.6,0,3.21,0,4.81,0,.1,0,.21,0,.31,0,.08-.04.12-.12.12-.1,0-.21,0-.31,0-.56,0-1.13,0-1.69,0-.16,0-.18-.02-.18-.18,0-.94,0-1.87,0-2.81,0-.12,0-.23,0-.35Z"/>
  <path class="st0" d="M181.19,44.16c0-.97.03-1.95,0-2.92-.03-.85.75-1.87,1.74-2,.36-.05.72-.05,1.07.02.54.1.96.41,1.31.82.53.61,1.05,1.23,1.57,1.85.8.95,1.61,1.9,2.41,2.85.14.16.29.29.51.3.2.01.31-.08.33-.28.01-.13.01-.26.01-.38,0-1.51,0-3.03,0-4.54,0-.09,0-.18,0-.27,0-.2.02-.22.22-.22.63,0,1.26,0,1.89,0,.22,0,.23.02.23.25,0,.18,0,.36,0,.54,0,1.81,0,3.62,0,5.42,0,.74-.31,1.33-.9,1.78-.26.2-.55.31-.88.36-.39.06-.77.03-1.15-.04-.2-.03-.39-.12-.55-.25-.2-.16-.38-.34-.54-.54-1.34-1.62-2.68-3.24-4.02-4.86-.08-.1-.17-.19-.26-.28-.1-.11-.24-.15-.39-.14-.2.02-.3.12-.31.32,0,.1,0,.21,0,.31,0,1.6,0,3.21,0,4.81,0,.1,0,.21,0,.31,0,.07-.03.12-.11.13-.05,0-.1,0-.15,0-.59,0-1.18,0-1.77,0-.26,0-.26,0-.26-.25,0-.72,0-1.44,0-2.15,0-.31,0-.62,0-.92Z"/>
  <path class="st0" d="M167.22,44.14c0-.96.04-1.93-.01-2.89-.04-.91.81-1.94,1.8-2.03.35-.03.69-.03,1.03.03.46.08.82.35,1.15.66.07.07.14.15.21.23,1.24,1.46,2.47,2.91,3.71,4.37.07.09.14.18.22.27.05.06.1.12.16.16.17.11.35.17.54.07.14-.08.14-.23.14-.37,0-.1,0-.21,0-.31,0-1.5,0-3,0-4.5,0-.1,0-.21,0-.31,0-.13.02-.14.17-.15.01,0,.03,0,.04,0,.64,0,1.28,0,1.93,0,.17,0,.19.02.19.2,0,.35,0,.69,0,1.04,0,1.67,0,3.33,0,5,0,.72-.31,1.28-.86,1.72-.27.21-.57.33-.91.39-.39.06-.77.03-1.15-.04-.22-.04-.41-.13-.59-.28-.19-.16-.36-.33-.51-.52-1.31-1.58-2.61-3.17-3.92-4.75-.11-.14-.24-.27-.36-.4-.07-.07-.16-.12-.27-.13-.27-.03-.42.09-.43.36,0,.09,0,.18,0,.27,0,1.59,0,3.18,0,4.77,0,.1,0,.21,0,.31,0,.14-.02.16-.15.16-.15,0-.31,0-.46,0-.5,0-1,0-1.5,0-.14,0-.16-.02-.16-.15,0-.35,0-.69,0-1.04,0-.72,0-1.44,0-2.15Z"/>
  <path class="st0" d="M152.37,27.12c0,1.77,0,3.54,0,5.31,0,.35,0,.35-.33.34-.86,0-1.72,0-2.58,0-.06,0-.13,0-.19,0-.08,0-.12-.05-.12-.12,0-.12,0-.23,0-.35,0-2.55,0-5.1,0-7.65,0-.12,0-.23,0-.35,0-.1-.06-.13-.15-.13-.1,0-.21,0-.31,0-1.65,0-3.31,0-4.96,0-.09,0-.18,0-.27,0-.16,0-.17-.02-.17-.18,0-.78,0-1.56,0-2.35,0-.18.01-.19.2-.19.09,0,.18,0,.27,0,2.72,0,5.44,0,8.16,0,.51,0,.45-.04.45.45,0,1.74,0,3.49,0,5.23Z"/>
  <path class="st0" d="M153.24,27.11c0-1.73,0-3.46,0-5.2,0-.1,0-.21,0-.31,0-.14.04-.17.19-.18.08,0,.15,0,.23,0,2.75,0,5.49,0,8.24,0,.48,0,.42-.05.43.44,0,.63,0,1.26,0,1.89,0,.09,0,.18,0,.27,0,.09-.03.15-.13.15-.12,0-.23,0-.35,0-1.66,0-3.31,0-4.97,0-.48,0-.43-.05-.43.43,0,2.58,0,5.16,0,7.74,0,.48.05.44-.43.44-.8,0-1.59,0-2.39,0-.09,0-.18,0-.27,0-.07,0-.12-.04-.12-.12,0-.12,0-.23,0-.35,0-1.73,0-3.46,0-5.2Z"/>
  <path class="st0" d="M213.75,39.37c1.05,0,2.1,0,3.16,0,.09,0,.18,0,.27,0,.13,0,.16.03.17.16,0,.08,0,.15,0,.23,0,.44,0,.87,0,1.31,0,.17-.03.19-.21.2-.15,0-.31,0-.46,0-1.54,0-3.08,0-4.62,0-.55,0-.96.24-1.27.67-.12.17-.19.36-.19.57,0,.6,0,1.21,0,1.81.01.65.5,1.14,1.14,1.16.22,0,.44,0,.65,0,1.5,0,3,0,4.5,0,.1,0,.21,0,.31,0,.13,0,.16.03.16.15,0,.13,0,.26,0,.38,0,.42,0,.85,0,1.27,0,.19-.02.2-.19.21-.06,0-.13,0-.19,0-1.94,0-3.87,0-5.81,0-.35,0-.7,0-1.03-.11-.97-.3-1.65-.9-1.9-1.92-.04-.15-.04-.3-.04-.46,0-1.1,0-2.21,0-3.31,0-.36.09-.68.28-.99.34-.57.83-.97,1.43-1.24.2-.09.42-.11.64-.11,1.06,0,2.13,0,3.19,0Z"/>
  <path class="st0" d="M147.69,39.37c1.04,0,2.08,0,3.12,0,.1,0,.21,0,.31,0,.14,0,.17.03.17.19,0,.51,0,1.03,0,1.54,0,.12-.04.16-.16.16-.1,0-.21,0-.31,0-1.6,0-3.21,0-4.81,0-.53,0-.93.22-1.25.63-.15.19-.22.4-.22.64,0,.58,0,1.15,0,1.73.01.71.5,1.21,1.22,1.21,1.69,0,3.39,0,5.08,0,.54,0,.47-.08.48.46,0,.46,0,.92,0,1.38,0,.15-.02.17-.18.17-.06,0-.13,0-.19,0-1.94,0-3.87,0-5.81,0-.35,0-.7,0-1.03-.11-1.02-.32-1.71-.95-1.92-2.04-.02-.12-.03-.25-.03-.38,0-1.08,0-2.15,0-3.23,0-.41.11-.78.34-1.12.33-.51.78-.87,1.33-1.13.21-.1.44-.12.67-.12,1.06,0,2.13,0,3.19,0Z"/>
  <path class="st0" d="M218.59,27.09v5.08c0,.05,0,.1,0,.15,0,.49.03.44-.43.44-.81,0-1.62,0-2.43,0-.09,0-.18,0-.27,0-.09,0-.14-.05-.14-.14,0-.1,0-.21,0-.31,0-3.48,0-6.95,0-10.43,0-.5-.07-.46.44-.46.8,0,1.59,0,2.39,0,.1,0,.21,0,.31,0,.07,0,.12.04.12.12,0,.12,0,.23,0,.35,0,1.73,0,3.46,0,5.19Z"/>
  <path class="st0" d="M116.58,59.92c0-1.08,0-2.15,0-3.23,0-.1,0-.2,0-.31,0-.06.04-.09.1-.09.08,0,.15,0,.23,0,.94,0,1.87,0,2.81,0,.32,0,.64.04.95.14.63.2,1.02.61,1.12,1.28.05.29.05.58,0,.88-.06.36-.23.65-.51.88-.05.04-.11.07-.15.12-.05.04-.03.09.01.13.04.03.09.06.13.08.43.28.69.68.77,1.19.07.45.04.9-.13,1.32-.24.6-.68.98-1.29,1.17-.31.09-.63.13-.95.13-.95,0-1.9,0-2.85,0-.04,0-.08,0-.12,0-.09,0-.15-.03-.15-.13,0-.1,0-.2,0-.31,0-1.08,0-2.15,0-3.23ZM118.91,62.31h0c.18,0,.36,0,.54,0,.15,0,.31,0,.46-.03.49-.06.75-.35.77-.85,0-.13,0-.26-.02-.38-.05-.34-.25-.56-.57-.65-.13-.04-.28-.07-.42-.07-.53,0-1.05,0-1.58,0-.19,0-.23.04-.23.23,0,.51,0,1.02,0,1.54,0,.18.04.21.24.22.27,0,.54,0,.81,0ZM118.86,59.13h0c.26,0,.51,0,.77,0,.14,0,.28-.02.41-.07.16-.06.29-.16.37-.32.09-.2.12-.42.07-.64-.06-.26-.21-.43-.47-.51-.15-.05-.3-.06-.46-.06-.46,0-.92,0-1.39,0-.05,0-.1,0-.15,0-.09,0-.15.05-.15.14,0,.44,0,.87,0,1.31,0,.09.06.14.14.14.28,0,.56,0,.85,0Z"/>
  <path class="st0" d="M107.17,43.44c0,1.2,0,2.41,0,3.61,0,.1,0,.2,0,.31,0,.07-.04.12-.11.12-.01,0-.03,0-.04,0-.67,0-1.33,0-2,0-.13,0-.15-.03-.16-.16,0-.1,0-.21,0-.31,0-1.76,0-3.51,0-5.27,0-.1,0-.2,0-.31,0-.07-.04-.12-.11-.12-.1,0-.2,0-.31,0-1.13,0-2.26,0-3.38,0-.1,0-.2,0-.31,0-.06,0-.09-.03-.1-.09,0-.03,0-.05,0-.08,0-.54,0-1.08,0-1.61,0-.15.03-.17.18-.18.08,0,.15,0,.23,0,1.9,0,3.8,0,5.69,0,.48,0,.42-.04.42.44,0,1.22,0,2.43,0,3.65Z"/>
  <path class="st0" d="M226,43.45c0,1.2,0,2.41,0,3.61,0,.1,0,.2,0,.31,0,.08-.05.11-.12.12-.03,0-.05,0-.08,0-.64,0-1.28,0-1.92,0-.17,0-.18-.01-.18-.17,0-.12,0-.23,0-.35,0-1.74,0-3.49,0-5.23,0-.1,0-.2,0-.31,0-.08-.05-.11-.12-.11-.1,0-.21,0-.31,0-1.12,0-2.23,0-3.35,0-.1,0-.21,0-.31,0-.1,0-.13-.06-.13-.15,0-.55,0-1.1,0-1.65,0-.13.03-.16.15-.17.09,0,.18,0,.27,0,1.9,0,3.79,0,5.69,0,.46,0,.42-.03.42.41,0,1.23,0,2.46,0,3.69Z"/>
  <path class="st0" d="M229.88,39.37c.96,0,1.92,0,2.88,0,.09,0,.18,0,.27,0,.05,0,.09.04.1.1,0,.04,0,.08,0,.11,0,.51,0,1.03,0,1.54,0,.18-.02.19-.2.2-.17,0-.33,0-.5,0-1.05,0-2.1,0-3.15,0-.08,0-.15,0-.23,0-.08,0-.12.04-.12.12,0,.12,0,.23,0,.35,0,1.74,0,3.49,0,5.23,0,.1,0,.21,0,.31,0,.15-.03.18-.18.18-.65,0-1.31,0-1.96,0-.13,0-.16-.03-.17-.15,0-.09,0-.18,0-.27,0-2.42,0-4.84,0-7.26,0-.1,0-.2,0-.31,0-.1.06-.13.15-.13.19,0,.38,0,.58,0,.85,0,1.69,0,2.54,0Z"/>
  <path class="st0" d="M107.78,43.41c0-1.2,0-2.41,0-3.61,0-.1,0-.2,0-.31,0-.08.05-.11.12-.11.06,0,.13,0,.19,0,1.96,0,3.92,0,5.89,0,.05,0,.1,0,.15,0,.14,0,.17.04.17.19,0,.53,0,1.05,0,1.58,0,.16-.02.18-.18.18-.28,0-.56,0-.85,0-.92,0-1.85,0-2.77,0-.1,0-.21,0-.31,0-.08,0-.11.05-.12.12,0,.12,0,.23,0,.35,0,1.74,0,3.49,0,5.23,0,.53.07.47-.46.47-.54,0-1.08,0-1.62,0-.22,0-.23-.01-.23-.24,0-1.03,0-2.05,0-3.08,0-.26,0-.51,0-.77Z"/>
  <path class="st0" d="M114.14,61.13h1.25c.05.15.01.3-.02.44-.29,1.37-1.33,2.07-2.45,2.19-.46.05-.92.05-1.38-.08-.72-.2-1.28-.62-1.67-1.27-.28-.48-.44-1.01-.51-1.56-.1-.74-.09-1.48.07-2.22.12-.59.35-1.12.74-1.58.47-.54,1.07-.82,1.77-.92.51-.07,1.02-.07,1.53.06.98.25,1.61.86,1.85,1.85.04.17.09.35.07.53,0,.06-.04.1-.09.1-.36,0-.72,0-1.08,0-.08,0-.12-.05-.14-.11-.02-.06-.03-.12-.05-.18-.17-.54-.53-.86-1.09-.97-.24-.05-.49-.05-.73,0-.64.11-1.06.47-1.3,1.07-.1.25-.16.51-.19.78-.08.65-.07,1.31.12,1.94.12.37.3.71.63.94.57.38,1.17.42,1.79.16.35-.15.57-.42.71-.77.05-.13.1-.26.15-.4Z"/>
  <path class="st0" d="M103.35,56.31c.1-.05.21-.03.31-.03.86,0,1.72,0,2.58,0,.25,0,.49.03.72.08.63.15,1.08.52,1.3,1.14.17.47.21.95.17,1.44-.03.29-.07.58-.18.86-.27.67-.75,1.05-1.47,1.14-.2.03-.41.03-.61.04-.44,0-.87,0-1.31,0-.15,0-.18.04-.18.18,0,.33,0,.67,0,1,0,.41,0,.82,0,1.23,0,.18-.02.2-.2.2-.33,0-.67,0-1,0-.09,0-.14-.04-.15-.13,0-.09,0-.18,0-.27,0-2.17,0-4.33,0-6.5,0-.13-.02-.26.03-.37ZM104.67,58.59h0c0,.28,0,.56,0,.85,0,.22.02.25.24.25.33,0,.67,0,1,0,.17,0,.33,0,.5-.03.33-.06.55-.25.64-.58.08-.29.09-.58.01-.87-.11-.43-.37-.65-.82-.67-.46-.01-.92,0-1.38,0-.16,0-.18.03-.19.18,0,.29,0,.59,0,.88Z"/>
  <path class="st0" d="M84.47,43.44c0,1.22,0,2.44,0,3.66,0,.09,0,.18,0,.27,0,.08-.05.11-.12.11-.04,0-.08,0-.12,0-.62,0-1.23,0-1.85,0-.04,0-.08,0-.12,0-.07,0-.12-.04-.12-.12,0-.08,0-.15,0-.23,0-2.46,0-4.93,0-7.39,0-.06,0-.13,0-.19,0-.15.02-.17.18-.17.67,0,1.33,0,2,0,.1,0,.14.05.14.14,0,.1,0,.21,0,.31,0,1.21,0,2.41,0,3.62Z"/>
  <path class="st0" d="M153.51,60c.06.04.1.07.15.09.24.11.37.31.43.56.05.2.09.4.11.6.04.41.06.82.08,1.23.02.35.03.69.3.97.05.05,0,.14-.07.14-.27,0-.54,0-.81,0-.09,0-.14-.05-.17-.13-.07-.21-.11-.42-.12-.64-.03-.42-.05-.84-.07-1.27,0-.18-.04-.36-.09-.53-.07-.25-.22-.43-.49-.49-.11-.03-.22-.05-.34-.06-.64-.06-1.28-.03-1.92-.03-.16,0-.2.04-.2.21,0,.56,0,1.13,0,1.69,0,.35,0,.69,0,1.04,0,.19-.01.21-.19.21-.79-.01-.65.14-.65-.63,0-2.08,0-4.16,0-6.23,0-.14-.03-.28.03-.41.09-.05.18-.03.27-.03.81,0,1.62,0,2.43,0,.23,0,.46.02.69.05.67.09,1.13.47,1.36,1.1.2.53.2,1.08.02,1.62-.09.29-.27.52-.5.71-.08.06-.19.09-.23.23ZM151.34,57.09c-.28,0-.56,0-.84,0-.16,0-.2.05-.2.21,0,.7,0,1.41,0,2.11,0,.19.04.22.23.23.5,0,1,0,1.5,0,.19,0,.38-.03.57-.07.37-.08.67-.27.79-.65.1-.3.12-.6.07-.91-.09-.52-.36-.77-.88-.86-.41-.07-.82-.05-1.23-.06Z"/>
  <path class="st0" d="M148.26,62.72c.04.29.02.56.01.81-.08.08-.18.06-.27.06-1.44,0-2.87,0-4.31,0-.05,0-.1,0-.15,0-.06,0-.1-.03-.1-.09,0-.06,0-.13,0-.19,0-2.24,0-4.49,0-6.73,0-.09-.02-.18.05-.27.08,0,.17-.01.26-.01,1.37,0,2.75,0,4.12,0,.08,0,.15,0,.23,0,.06,0,.09.04.1.09,0,.06.01.13,0,.19-.01.18.07.39-.04.52-.12.13-.34.05-.52.05-.98,0-1.95,0-2.93,0-.45,0-.43-.02-.43.45,0,.53,0,1.05,0,1.58,0,.19.04.23.22.23.09,0,.18,0,.27,0,.9,0,1.8,0,2.7,0h.39c.06.14.04.26.04.39,0,.12.03.25-.03.37-.13.06-.26.03-.38.03-.95,0-1.9,0-2.85,0-.35,0-.35,0-.35.33,0,.62,0,1.23,0,1.85,0,.05,0,.1,0,.15.01.12.05.17.16.17.12,0,.23,0,.35,0,1.05,0,2.1,0,3.16,0,.1,0,.2,0,.31,0Z"/>
  <path class="st0" d="M94.81,56.3c.08,0,.17-.01.26-.01,1.37,0,2.75,0,4.12,0,.08,0,.15,0,.23,0,.06,0,.09.04.1.1,0,.09,0,.18,0,.27,0,.57.08.49-.49.49-1.01,0-2.03,0-3.04,0-.39,0-.39,0-.39.37,0,.55,0,1.1,0,1.65,0,.19.04.23.22.23.09,0,.18,0,.27,0,.9,0,1.8,0,2.69,0h.39c.07.13.04.26.04.39,0,.13.03.25-.03.38-.13.06-.26.03-.38.03-.92,0-1.85,0-2.77,0-.1,0-.21,0-.31.01-.07,0-.11.05-.12.13,0,.06,0,.13,0,.19,0,.62,0,1.23,0,1.85,0,.06,0,.13,0,.19.01.09.07.13.15.14.1,0,.21,0,.31,0,1.04,0,2.08,0,3.12,0h.37s.03.04.03.06c.01,1.01.19.8-.72.81-1.23.01-2.46,0-3.69,0-.1,0-.21,0-.31,0-.06,0-.1-.04-.1-.1,0-.08,0-.15,0-.23,0-2.21,0-4.41,0-6.62,0-.11-.03-.23.05-.35Z"/>
  <path class="st0" d="M125.86,63.56c-.06-.09-.04-.18-.04-.27,0-2.23,0-4.46,0-6.69,0-.06,0-.13,0-.19,0-.07.03-.12.11-.12.08,0,.15,0,.23,0,1.35,0,2.69,0,4.04,0,.06,0,.13,0,.19,0,.14,0,.17.03.17.15,0,.19,0,.38,0,.58,0,.09-.05.14-.15.14-.1,0-.21,0-.31,0-.97,0-1.95,0-2.92,0-.1,0-.21,0-.31,0-.17,0-.21.04-.22.2,0,.62,0,1.23,0,1.85,0,.16.05.2.21.21.1,0,.21,0,.31,0,.9,0,1.8,0,2.69,0,.09,0,.18,0,.27,0,.1,0,.13.05.13.14,0,.01,0,.03,0,.04-.01.19.03.38-.03.57-.18.09-.38.04-.56.04-.85,0-1.69,0-2.54,0-.12,0-.23,0-.35.01-.07,0-.11.05-.12.12,0,.08-.01.15-.01.23,0,.59,0,1.18,0,1.77,0,.05,0,.1,0,.15.01.18.05.21.24.22.1,0,.21,0,.31,0,1.01,0,2.03,0,3.04,0,.1,0,.21,0,.31,0,.06,0,.09.04.1.09,0,.01,0,.03,0,.04,0,.23.03.46-.02.69-.22.1-.45.05-.68.05-1.23,0-2.46,0-3.69,0-.14,0-.28.03-.41-.03Z"/>
  <path class="st0" d="M163.3,56.1c.34,0,.61.03.87.1.8.23,1.3.75,1.5,1.55.04.16.06.33.08.49.01.1-.03.15-.12.15-.19,0-.38,0-.58,0-.1,0-.13-.05-.15-.14-.03-.14-.05-.28-.09-.41-.15-.48-.49-.77-.97-.9-.37-.1-.74-.1-1.1,0-.49.14-.85.42-.93.96-.05.3.03.56.24.78.13.14.29.25.46.34.3.15.61.25.94.34.36.09.72.19,1.07.3.15.04.29.1.43.16.54.23.84.65.96,1.21.07.34.06.69-.02,1.03-.21.86-.77,1.37-1.6,1.6-.59.17-1.19.17-1.79,0-.97-.26-1.52-.92-1.69-1.89-.11-.67-.18-.56.48-.57.05,0,.1,0,.15,0,.08,0,.12.04.13.11.02.09.02.18.03.27.13.7.62,1.19,1.32,1.34.51.1,1,.06,1.46-.18.41-.21.64-.54.68-1,.03-.33-.08-.6-.32-.82-.15-.13-.31-.23-.48-.31-.28-.13-.57-.23-.87-.3-.4-.1-.79-.21-1.17-.37-.18-.07-.35-.15-.52-.24-.35-.19-.56-.49-.66-.86-.31-1.24.31-2.48,1.83-2.7.16-.02.33-.02.43-.03Z"/>
  <path class="st0" d="M87.96,59.91c0-1.06,0-2.13,0-3.19,0-.1,0-.21,0-.31,0-.07.04-.13.12-.12.24.02.48-.06.72.04.06.2.02.41.02.61,0,.65,0,1.31,0,1.96,0,.09,0,.18,0,.27,0,.07.05.12.12.13.08.01.15.01.23.01.95,0,1.9,0,2.85,0,.08,0,.15,0,.23,0,.07,0,.12-.05.12-.12,0-.1,0-.2,0-.31,0-.74,0-1.49,0-2.23,0-.09,0-.18.01-.27,0-.03.05-.07.07-.07.23,0,.46,0,.69,0,.06,0,.08.05.09.11,0,.08,0,.15,0,.23,0,2.21,0,4.41,0,6.62,0,.35.01.35-.33.34-.17,0-.37.06-.49-.04-.13-.11-.05-.31-.05-.47,0-.83,0-1.67,0-2.5,0-.09,0-.18,0-.27,0-.09-.05-.15-.14-.15-.06,0-.13,0-.19,0-.96,0-1.93,0-2.89,0-.34,0-.35,0-.35.34,0,.87,0,1.74,0,2.62,0,.09,0,.18,0,.27,0,.2-.01.21-.22.22-.18,0-.36,0-.54,0-.06,0-.1-.04-.1-.1,0-.1,0-.2,0-.31,0-1.09,0-2.18,0-3.27Z"/>
  <path class="st0" d="M137.55,56.3c.05,0,.1-.02.15-.02.85,0,1.69,0,2.54,0,.28,0,.56.05.83.13.46.13.77.43.99.85.28.53.33,1.64-.03,2.27-.32.57-.8.9-1.45.93-.6.03-1.21.02-1.81.03-.39,0-.39,0-.39.38,0,.77,0,1.54,0,2.31,0,.1,0,.21,0,.31,0,.06-.04.09-.09.1-.04,0-.08,0-.11,0-.2-.01-.41.03-.61-.02-.09-.2-.04-.4-.04-.6,0-2.08,0-4.16,0-6.23,0-.14-.02-.28.03-.43ZM138.39,58.37h0c0,.35,0,.69,0,1.04,0,.23.03.25.24.25.5,0,1,0,1.5,0,.18,0,.36-.04.53-.08.43-.11.68-.39.73-.83.02-.18.02-.36.01-.54-.03-.59-.32-.92-.9-1.03-.06-.01-.13-.02-.19-.02-.58,0-1.15,0-1.73,0-.15,0-.19.04-.19.18,0,.35,0,.69,0,1.04Z"/>
  <path class="st0" d="M131.12,63.59c.49-.79.93-1.51,1.38-2.22.26-.42.52-.85.79-1.27.1-.16.11-.29,0-.46-.45-.72-.88-1.44-1.32-2.16-.21-.34-.41-.68-.62-1.02-.03-.04-.06-.08-.04-.17.14-.01.29,0,.43,0,.15,0,.31,0,.46,0,.06,0,.1.03.13.07.04.06.08.13.12.2.43.71.86,1.43,1.29,2.14.05.08.1.15.15.22.03.04.07.03.1,0,.06-.08.12-.17.17-.25.4-.67.81-1.34,1.21-2.01.05-.08.1-.15.14-.23.05-.1.13-.15.25-.14.26,0,.51,0,.77,0,.03.13-.05.2-.1.28-.58.95-1.17,1.9-1.75,2.85-.31.52-.31.34,0,.84.64,1.05,1.29,2.1,1.93,3.15.03.04.05.09.07.13-.04.09-.11.06-.17.06-.22,0-.44,0-.65,0-.15,0-.24-.06-.31-.18-.29-.5-.58-1-.87-1.49-.19-.32-.38-.64-.57-.96-.05-.08-.09-.15-.15-.22-.04-.05-.09-.05-.13,0-.06.08-.11.17-.16.26-.44.77-.88,1.53-1.32,2.3-.04.07-.08.13-.12.2-.04.06-.09.09-.16.09-.29,0-.58,0-.94,0Z"/>
  <path class="st0" d="M84.96,60.38c0,.92,0,1.85,0,2.77,0,.09,0,.18,0,.27,0,.13-.03.17-.15.17-.19,0-.38,0-.58,0-.09,0-.14-.04-.14-.14,0-.1,0-.21,0-.31,0-1.85,0-3.69,0-5.54,0-.51.05-.48-.48-.48-.47,0-.95,0-1.42,0-.22,0-.23-.01-.23-.21,0-.2-.05-.41.04-.6.19-.06.38-.02.57-.02,1.35,0,2.7,0,4.04,0,.1,0,.21,0,.31,0,.15,0,.17.03.18.18,0,.01,0,.03,0,.04-.02.73.12.6-.59.62-.38,0-.77,0-1.16,0-.09,0-.18,0-.27.01-.07,0-.11.05-.12.12,0,.1,0,.2,0,.31,0,.94,0,1.87,0,2.81Z"/>
  <path class="st0" d="M157.18,60.33c0-.92,0-1.85,0-2.77,0-.1,0-.21,0-.31,0-.08-.05-.12-.12-.12-.1,0-.2,0-.31,0-.49,0-.98,0-1.46,0-.22,0-.23-.01-.23-.21,0-.2-.05-.41.04-.6.19-.06.38-.03.57-.03,1.36,0,2.72,0,4.08,0,.09,0,.18,0,.27,0,.15,0,.17.02.18.18,0,.01,0,.03,0,.04-.02.73.12.6-.59.62-.38,0-.77,0-1.16,0-.09,0-.18,0-.27.01-.07,0-.11.05-.12.13,0,.12,0,.23,0,.35,0,1.83,0,3.67,0,5.5,0,.1,0,.21,0,.31,0,.13-.03.17-.15.17-.21,0-.41,0-.62,0-.06,0-.1-.03-.1-.09,0-.1,0-.2,0-.31,0-.95,0-1.9,0-2.85Z"/>
</svg>