<?xml version="1.0" encoding="UTF-8"?>
<svg id="Layer_1" xmlns="http://www.w3.org/2000/svg" version="1.1" viewBox="0 0 359.94 56.69">
  <!-- Generator: Adobe Illustrator 30.6.0, SVG Export Plug-In . SVG Version: 2.1.4 Build 109)  -->
  <defs>
    <style>
      .st0 {
        fill: #b7b7b8;
      }
    </style>
  </defs>
  <path class="st0" d="M352.57,0h-40.17c-.41,0-.81.03-1.19.09-.38-.06-.78-.09-1.17-.09h-11.81c-4.09,0-7.38,3.31-7.38,7.38v6.22l-.59.58h-2.96l-.59-.58v-6.22c0-4.07-3.31-7.38-7.38-7.38h-11.81c-.41,0-.81.03-1.19.09-.38-.06-.78-.09-1.17-.09h-40.18c-3.49,0-6.42,2.42-7.18,5.69-.76-3.26-3.69-5.69-7.18-5.69h-33.08c-1.97,0-3.84.78-5.23,2.16l-5.41,5.41-5.41-5.41c-1.39-1.39-3.26-2.16-5.21-2.16h-33.1c-.4,0-.79.03-1.17.09-.38-.06-.78-.09-1.19-.09h-11.81c-4.07,0-7.38,3.31-7.38,7.38v1.01l-6.2-6.22c-1.39-1.39-3.26-2.16-5.23-2.16h-14.27c-.4,0-.79.03-1.17.09-.4-.06-.78-.09-1.19-.09h-11.81c-.4,0-.79.03-1.17.09-.4-.06-.79-.09-1.19-.09h-13.84c-1.97,0-3.84.78-5.23,2.16l-6.92,6.94-6.92-6.94c-1.39-1.39-3.26-2.16-5.23-2.16H7.38C3.31,0,0,3.31,0,7.38v41.94c0,4.09,3.31,7.38,7.38,7.38h11.81c4.07,0,7.38-3.29,7.38-7.38v-.56l1.59,1.59c1.43,1.43,3.32,2.15,5.21,2.15s3.78-.72,5.21-2.15l1.59-1.59v.56c0,4.09,3.31,7.38,7.38,7.38h11.81c.4,0,.79-.03,1.19-.09.38.06.78.09,1.17.09h11.81c.41,0,.79-.03,1.19-.09.38.06.78.09,1.17.09h11.81c4.09,0,7.38-3.29,7.38-7.38v-.99l6.22,6.22c1.39,1.37,3.26,2.15,5.21,2.15h14.27c.41,0,.81-.03,1.19-.09.38.06.78.09,1.17.09h33.1c1.95,0,3.83-.76,5.21-2.15l.73-.75c1.36,1.77,3.48,2.9,5.87,2.9h33.08c1.95,0,3.83-.76,5.21-2.15l9.45-9.45c.81-.81,1.42-1.78,1.77-2.85v7.07c0,4.09,3.31,7.38,7.38,7.38h40.18c4.07,0,7.38-3.29,7.38-7.38v-3.55c.87.67,1.89,1.11,2.96,1.34v2.21c0,4.09,3.31,7.38,7.38,7.38h11.81c4.09,0,7.38-3.29,7.38-7.38v-2.21c1.08-.23,2.09-.67,2.97-1.34v3.55c0,4.09,3.29,7.38,7.38,7.38h40.17c4.07,0,7.38-3.29,7.38-7.38V7.38c0-4.07-3.31-7.38-7.38-7.38ZM214.29,39.86c0,.99-.4,1.92-1.08,2.62l-9.45,9.45c-.7.69-1.63,1.07-2.61,1.07h-33.08c-2.04,0-3.69-1.65-3.69-3.69v-2.9l-5.52,5.52c-.7.69-1.63,1.07-2.61,1.07h-33.1c-.41,0-.81-.06-1.17-.18-.37.12-.76.18-1.19.18h-14.27c-.98,0-1.92-.38-2.61-1.08l-12.52-12.5v9.89c0,2.04-1.65,3.69-3.69,3.69h-11.81c-.41,0-.81-.06-1.17-.18-.38.12-.78.18-1.19.18h-11.81c-.41,0-.81-.06-1.17-.18-.38.12-.78.18-1.19.18h-11.81c-2.04,0-3.69-1.65-3.69-3.69v-9.47l-7.88,7.88c-.69.69-1.63,1.07-2.61,1.07s-1.92-.38-2.61-1.07l-7.88-7.88v9.47c0,2.04-1.65,3.69-3.69,3.69H7.38c-2.04,0-3.69-1.65-3.69-3.69V7.38c0-2.03,1.65-3.69,3.69-3.69h13.84c.98,0,1.92.4,2.61,1.08l9.54,9.54,9.54-9.54c.69-.69,1.63-1.08,2.61-1.08h13.84c.41,0,.81.08,1.19.2.37-.12.76-.2,1.17-.2h11.81c.41,0,.81.08,1.19.2.37-.12.76-.2,1.17-.2h14.27c.99,0,1.92.4,2.62,1.08l12.5,12.52V7.38c0-2.03,1.66-3.69,3.69-3.69h11.81c.43,0,.82.08,1.19.2.37-.12.76-.2,1.17-.2h33.1c.98,0,1.91.4,2.61,1.08l8.02,8.03,8.02-8.03c.7-.69,1.63-1.08,2.62-1.08h33.08c2.04,0,3.69,1.66,3.69,3.69v32.49ZM356.26,49.31c0,2.04-1.65,3.69-3.69,3.69h-40.17c-2.04,0-3.69-1.65-3.69-3.69v-12.35l-5.52,5.52c-.7.69-1.63,1.07-2.61,1.07h-2.23v5.76c0,2.04-1.65,3.69-3.69,3.69h-11.81c-2.04,0-3.69-1.65-3.69-3.69v-5.76h-2.21c-.99,0-1.92-.38-2.62-1.07l-5.5-5.52v12.35c0,2.04-1.66,3.69-3.69,3.69h-40.18c-2.03,0-3.69-1.65-3.69-3.69V7.38c0-2.03,1.66-3.69,3.69-3.69h40.18c.41,0,.81.08,1.17.2.37-.12.76-.2,1.19-.2h11.81c2.03,0,3.69,1.66,3.69,3.69v7.74l2.74,2.74h6.02l2.76-2.74v-7.74c0-2.03,1.65-3.69,3.69-3.69h11.81c.41,0,.81.08,1.17.2.38-.12.78-.2,1.19-.2h40.17c2.04,0,3.69,1.66,3.69,3.69v41.94Z"/>
  <polygon class="st0" points="172.79 12.1 172.78 12.11 172.79 12.11 172.78 12.11 168.07 16.83 168.07 16.83 168.06 16.84 168.06 16.84 168.07 16.83 168.07 28.64 196.24 28.64 193.86 31.01 168.07 31.01 168.07 40.47 201.15 40.47 210.6 31.01 210.6 19.19 182.43 19.19 184.79 16.83 210.6 16.83 210.6 7.38 177.52 7.38 172.79 12.1"/>
  <polygon class="st0" points="108.98 26.19 90.18 7.38 108.98 26.19 108.98 26.19 90.17 7.38 75.9 7.38 75.9 40.47 87.71 40.47 87.71 21.66 106.53 40.47 120.79 40.47 120.79 7.38 108.98 7.38 108.98 26.19"/>
  <rect class="st0" x="61.72" y="7.38" width="11.81" height="33.1"/>
  <path class="st0" d="M123.16,7.38v33.1h33.1l9.45-9.47v-14.18l-9.45-9.45h-33.1ZM153.89,26.1l-2.26,2.26-2.67,2.65h-13.99v-14.18h13.99l4.92,4.92v4.34Z"/>
  <polygon class="st0" points="33.37 19.53 25.27 11.43 21.22 7.38 7.38 7.38 7.38 40.47 19.19 40.47 19.19 22.09 33.37 36.27 47.55 22.09 47.55 40.47 59.36 40.47 59.36 7.38 45.52 7.38 33.37 19.53"/>
  <polygon class="st0" points="312.4 40.47 352.57 40.47 352.57 31.01 324.21 31.01 324.21 28.64 352.57 28.64 352.57 19.19 324.21 19.19 324.21 16.83 352.57 16.83 352.57 7.38 312.4 7.38 312.4 40.47"/>
  <polygon class="st0" points="298.22 16.65 293.3 21.56 284.23 21.56 281.77 19.1 279.32 16.65 279.32 7.38 267.5 7.38 267.5 21.56 276.96 31.01 282.86 31.01 282.86 40.47 294.67 40.47 294.67 31.01 300.58 31.01 310.04 21.56 310.04 7.38 298.22 7.38 298.22 16.65"/>
  <polygon class="st0" points="224.96 40.47 265.14 40.47 265.14 31.01 236.77 31.01 236.77 28.64 265.14 28.64 265.14 19.19 236.77 19.19 236.77 16.83 265.14 16.83 265.14 7.38 224.96 7.38 224.96 40.47"/>
</svg>