<?xml version="1.0" encoding="UTF-8"?>
<svg id="Layer_1" xmlns="http://www.w3.org/2000/svg" version="1.1" viewBox="0 0 198.84 70.87">
  <!-- Generator: Adobe Illustrator 30.6.0, SVG Export Plug-In . SVG Version: 2.1.4 Build 109)  -->
  <defs>
    <style>
      .st0 {
        fill: #b7b7b8;
      }
    </style>
  </defs>
  <path class="st0" d="M12.07,58.84c.24.02.48.03.71.07,1.92.4,3.83.87,5.77,1.2,3.18.54,6.07-.21,8.72-2.08,4.37-3.09,8.78-6.14,13.2-9.15,3.15-2.15,6.66-3.44,10.42-3.99,2.46-.36,4.94-.56,7.41-.8,2.79-.27,5.58-.51,8.37-.74,2.16-.18,4.33-.33,6.49-.5,3.3-.26,6.39-1.16,9.11-3.13.38-.27.74-.56,1.16-.89-.43,1.19-1.01,2.28-1.18,3.42-.17,1.13.07,2.33.13,3.6-.53-.07-1.08-.1-1.62-.21-2.87-.55-5.75-.51-8.64-.32-1.69.11-3.38.21-5.07.34-3.13.24-6.26.48-9.39.75-1.91.16-3.83.34-5.73.58-3.12.4-5.99,1.49-8.65,3.16-5.54,3.49-11.08,6.98-16.62,10.48-.49.31-.95.65-1.43.97.03.06.05.12.08.18.18-.07.37-.12.54-.21,2.03-1.09,4.06-2.19,6.08-3.3.57-.31,1.1-.52,1.79-.39.63.12,1.3.08,1.96.06,1.1-.03,1.86-.62,2.35-1.57.04-.08.1-.16.11-.25.21-1.11,1.07-1.56,1.96-2.05,2.66-1.46,5.34-2.85,8.2-3.87,2.77-.98,5.6-1.58,8.56-1.56.71,0,.7,0,.73.7.09,2.87,0,5.74-.39,8.59-.03.24-.03.49-.04.77.52,0,.82-.3,1.1-.61.42-.46.69-1.01.71-1.65.08-2.42.17-4.83.23-7.25.02-.93.1-.79.76-.84,3.52-.26,7.03-.53,10.55-.79,2.3-.17,4.6-.35,6.89-.53.24-.02.48,0,.81,0v10.37c.23.02.39.07.53.05,1.28-.11,2.57-.19,3.84-.37,1.79-.25,2.94-1.44,3.27-3.24.32-1.72.32-3.43-.31-5.08-.25-.65-.62-1.25-.96-1.86-.93-1.68-1.13-3.42-.46-5.22.68-1.84,2.17-2.69,4.14-2.6,2.29.11,4.1,1.12,5.66,2.7.62.63,1.28,1.21,1.93,1.81.19.18.41.34.62.5.04-.02.09-.05.13-.07-.08-.24-.15-.47-.23-.71-.48-1.48-1.05-2.94-1.4-4.45-.49-2.12-.27-4.23.67-6.22.85-1.8,3.22-2.59,5.12-1.72,1.57.73,2.58,2.02,3.38,3.49.61,1.12.99,2.32,1.18,3.58.06.4.18.78.29,1.29,5.32-4.3,10.93-7.94,17.33-10.55v.92c0,8.8,0,17.59,0,26.39,0,.23.01.45,0,.68-.01.28.12.41.39.44,1.45.21,2.89.15,4.28-.36,1.47-.55,2-1.74,2.13-3.18.07-.74.1-1.49.1-2.24,0-6.17,0-12.35,0-18.52,0-.68-.03-1.36-.1-2.03-.18-1.9-1.04-2.89-2.89-3.39-.21-.06-.43-.12-.82-.22,2.82-1.77,5.77-2.94,8.55-4.45-9.89,3.38-19.51,7.31-28.09,13.64-.65-1.24-1.28-2.45-1.92-3.68.11-.04.17-.08.22-.07,2.41.43,4.63-.18,6.73-1.3,7.04-3.77,14.29-7.07,21.92-9.48,3.92-1.24,7.91-2.21,11.98-2.87,4.38-.71,8.78-1.1,13.21-1.34,3.25-.18,6.49-.48,9.74-.71.79-.06,1.58-.07,2.37-.1.66-.02.69,0,.69.67,0,2.04,0,4.07,0,6.11,0,.05,0,.09,0,.14.08.77-.06,1.39-.77,1.92-.86.64-1.14,1.69-1.16,2.72-.04,2.58-.01,5.15,0,7.73,0,.04.03.08.08.24.2-.17.42-.28.54-.46,1.98-2.75,3.97-5.49,5.91-8.27.84-1.2,1.11-2.59,1.1-4.05-.02-2.26-.01-4.52-.01-6.78,0-.23.04-.45.04-.68,0-.46.22-.6.68-.6,6.4.01,12.8,0,19.2,0,.62,0,.64.02.64.66,0,2.76,0,5.52,0,8.28,0,.35-.07.6-.44.73-1.41.49-2.39,1.52-3.24,2.68-2.52,3.5-4.99,7.04-7.55,10.51-.59.8-.61,1.34-.1,2.19,2.88,4.86,5.68,9.76,8.52,14.64.89,1.52,1.98,2.87,3.64,3.62.28.12.34.3.34.58,0,2.76,0,5.52,0,8.28,0,.43-.15.64-.59.61-.09,0-.18,0-.27,0-6.65,0-13.3,0-19.94,0-.09,0-.18,0-.27,0-.65-.02-.65-.02-.66-.64-.05-2.37-.09-4.75-.15-7.12-.03-1.45-.34-2.81-1.08-4.08-1.95-3.36-3.86-6.74-5.79-10.11-.1-.17-.22-.32-.32-.48-.06,0-.11,0-.17.01-.04.22-.11.43-.12.65,0,1.79,0,3.57,0,5.36,0,1.15,0,2.31,0,3.46.01,1.41.5,2.59,1.65,3.48.18.14.33.44.34.66.02,2.76,0,5.52.02,8.28,0,.43-.13.62-.58.6-.59-.02-1.18,0-1.76,0-6.56,0-13.11,0-19.67,0-.18,0-.36,0-.54,0-.27,0-.42-.11-.42-.4,0-1.08,0-2.16,0-3.35.24.11.4.16.54.25.4.25.83.48,1.18.79.95.84,2.05.56,3.25.58-.23-.39-.39-.68-.63-1.09.8.07,1.5.14,2.2.2.99.09,1.98.2,2.97.27.14.01.29-.12.44-.19-.09-.11-.17-.25-.28-.33-.2-.14-.43-.24-.74-.4.7-.63,1.47-.96,2.33-1.01.6-.03,1.23,0,1.81.16.54.15.93.07,1.37-.24,1.06-.74.89-.53.38-1.48-.4-.73-.8-1.47-1.24-2.18-.57-.89-.92-1.83-1-2.9-.02-.29-.22-.69-.46-.83-.55-.33-.97-.06-1.09.6-.1.59-.16.62-.76.54-.31-.04-.63-.08-.94-.12-.09,0-.17.01-.43.04.4.33.67.6.99.82.36.24.46.52.3.92-.21.54-.41,1.09-.61,1.62-1.49-.33-2.28-1.61-1.66-2.9.23-.49.12-.76-.27-1.08-1.35-1.1-2.85-1.41-4.51-.94-.34.1-.68.21-1.12.34-.03-.33-.07-.61-.07-.89,0-8.48,0-16.96-.02-25.44,0-.85-.12-1.71-.29-2.55-.14-.7-.6-1.26-1.16-1.71-.17-.13-.37-.23-.55-.34-.04.03-.09.05-.13.08.09.57.23,1.14.26,1.71.08,1.42.15,2.84.16,4.26.05,5.54.09,11.08.1,16.62,0,2.69-.05,5.38-.14,8.07-.07,2.08-.76,3.98-1.96,5.69-.44.63-1.05,1-1.81,1.22-2.25.65-4.51.98-6.82.43-.65-.15-1.25-.49-1.88-.74-.39-.15-.46-.44-.39-.82.1-.52.18-1.04.28-1.66-1.41,1.3-1.04,3.31.67,3.77,1.05.28,2.18.31,3.28.4.7.05,1.4.01,2.1,0,.67-.02,1.35-.06,2.12,0-.26.25-.49.52-.77.73-2.17,1.65-4.61,2.71-7.3,3.04-1.99.25-4.01.38-6.01.4-9.27.06-18.54.05-27.81.07-.78,0-.78,0-.79-.8,0-.75,0-1.49-.02-2.24,0-.19-.09-.38-.14-.57-.2.06-.44.07-.6.19-1.44,1.05-3,1.83-4.7,2.36-2,.63-4.06.88-6.14.89-10.63.05-21.25.09-31.88.13-.43,0-.85,0-1.37,0v-8.05c-.06-.03-.12-.05-.19-.08-.14.17-.32.32-.41.51-1.29,2.68-3.26,4.69-5.92,6.03-1.48.75-3.08,1.17-4.69,1.54-4.53,1.04-9.13,1.23-13.75,1.09-3.86-.12-7.63-.8-11.24-2.26-.54-.22-1.11-.4-1.64-.64-.46-.2-.85-.14-1.28.08-2.09,1.03-4.16,2.09-6.28,3.03-2.24.99-4.69,1.32-7.14,1.07.24-.12.48-.24.73-.34,2.71-1.14,5.42-2.27,8.12-3.41.22-.09.58-.11.46-.62-.43.08-.86.17-1.3.23-1.66.21-3.31.52-4.97.59-2.31.1-4.41-.6-6.24-2.05-.21-.16-.4-.35-.68-.6,1.89.07,3.63.44,5.43.3-2.33-.96-4.54-2.04-5.79-4.57.32.09.53.14.72.2,2.93.91,5.86,1.82,8.8,2.74,1.87.58,3.71.36,5.53-.2.06-.02.11-.07.24-.15-1.13-1.3-2.24-2.58-3.35-3.85.04-.07.08-.14.12-.21ZM97.56,45.71s-.09.06-.13.08c-.24-.15-.49-.3-.73-.46-1.39-.93-2.75-1.91-4.16-2.79-.74-.46-1.55-.87-2.38-1.11-2.3-.66-4.19.57-4.33,2.84-.12,1.99.44,3.82,1.96,5.22,2.79,2.56,6,4.26,9.83,4.55,2.54.19,4.67-.73,5.86-3.15.62-1.27,1.02-2.61,1.29-3.98.56-2.9.48-5.79-.22-8.67-.51-2.08-1.7-3.62-3.53-4.67-1.55-.89-3.12-.38-3.95,1.2-.47.9-.66,1.87-.72,2.87-.1,1.63.4,3.17.64,4.76.16,1.11.38,2.21.57,3.32Z"/>
  <path class="st0" d="M57.05,25.31c.15,1.22.35,2.33.41,3.45.11,1.96.17,3.93.19,5.89.03,2.58,0,5.15,0,7.73,0,.79,0,.75-.75.85-3.02.41-6.03.86-9.05,1.28-2.1.29-4,1.1-5.78,2.2-.94.58-1.84,1.22-2.77,1.83-.2.13-.41.25-.7.42-.04-.74-.1-1.36-.1-1.99,0-5.38,0-10.76,0-16.14,0-.54,0-1.09-.04-1.63-.14-1.78-1.28-2.99-3.06-3.15-1.73-.16-3.25.46-3.79,1.97-.26.73-.36,1.55-.36,2.33-.03,6.56-.03,13.11-.04,19.67,0,1.27-.02,2.53,0,3.8.01.48-.13.79-.54,1.06-1.57,1.03-3.1,2.1-4.67,3.14-2.25,1.49-4.73,1.74-7.29,1.14-1.95-.46-3.87-1.09-5.8-1.62-.33-.09-.42-.29-.44-.59-.1-1.28-.28-2.57-.29-3.85-.04-5.29-.04-10.58-.04-15.87,0-2.17,0-4.34.04-6.51.04-2.43.33-4.82,1.3-7.08,1.46-3.39,4.01-5.62,7.39-6.96,2.97-1.18,6.07-1.71,9.25-1.92,3.32-.22,6.64-.23,9.96.03,3.62.28,7.17.91,10.44,2.63,2.54,1.34,4.44,3.3,5.69,5.89.05.1.11.2.17.29.02.03.07.05.2.13.02-.23.06-.4.06-.58,0-2.22,0-4.43,0-6.65,0-.76,0-.79.79-.8,3.14-.02,6.29-.01,9.43-.03,3.48-.01,6.96-.06,10.44-.05,3.8,0,7.6-.02,11.39.12,2.11.08,4.23.36,6.32.72,2.15.37,4.05,1.39,5.73,2.78.2.17.41.33.74.6.03-.37.05-.6.06-.84,0-.9.03-1.81,0-2.71-.02-.48.17-.66.63-.62.09,0,.18,0,.27,0,5.97-.02,11.94-.05,17.91-.05,3.21,0,6.42.03,9.63.11,1.9.05,3.79.27,5.68.33.85.03,1.71-.12,2.55-.24,3.74-.56,7.51-.75,11.28-.8,2.01-.03,4.02-.05,6.02-.25,2.88-.28,5.38-1.55,7.49-3.49,1.32-1.22,2.48-2.62,3.7-3.95.31-.34.6-.7.99-1.16.34,2.05.05,3.83-.88,5.59.29-.11.59-.21.88-.34,2.17-1.01,4.04-2.44,5.52-4.29,1.68-2.09,3.22-4.3,4.82-6.46.14-.19.29-.39.51-.68.35,2.66-.81,4.77-1.98,6.88.05.04.1.07.14.11,1.22-1.07,2.44-2.14,3.67-3.21-.09,1.01-.45,1.89-.9,2.74-.75,1.43-1.79,2.61-3.17,3.45-1.6.97-3.21,1.93-4.82,2.9-.21.13-.43.25-.63.49.26,0,.54.04.79,0,2.93-.47,5.78-1.24,8.57-2.24.14-.05.29-.08.44-.12.03.04.06.08.09.12-.21.2-.4.43-.64.6-2.46,1.81-5.22,2.95-8.2,3.58-2.88.61-5.81.84-8.73,1.1-4.17.37-8.35.43-12.53.39-2.48-.02-4.97,0-7.45.13-3.37.18-6.63.97-9.7,2.34-2.97,1.33-5.86,2.8-8.76,4.28-4.04,2.06-8.06,4.18-12.08,6.28-2.26,1.18-4.66,1.75-7.2,1.45-.98-.11-1.96-.36-2.88-.7-2.76-1.01-5.55-1.3-8.36-.35-1.13.38-2.23.88-3.25,1.49-2.57,1.52-4.98,3.27-7.17,5.32-2.88,2.69-6.35,4.2-10.23,4.7-2.35.31-4.72.48-7.08.69-2.09.19-4.19.36-6.28.54-.11,0-.23.02-.34.02-.62,0-.65-.01-.66-.63,0-1.65,0-3.3,0-4.95,0-2.71.04-5.43-.02-8.14-.02-.84-.22-1.7-.48-2.5-.23-.7-.78-1.19-1.62-1.44ZM78.35,36.13c.14.03.2.06.27.05,1.55-.18,3.1-.31,4.63-.58.98-.17,1.71-.82,2.04-1.79.2-.57.39-1.17.46-1.76.24-2.32-.66-4.6-3.55-5.15-1.03-.19-2.1-.2-3.16-.24-.71-.03-.72,0-.73.7,0,2.71,0,5.42,0,8.13,0,.2.03.4.04.64ZM19.25,55.7c.24,1.61,1.21,2.42,2.65,2.34.43-.02.86-.06,1.27-.17.7-.19,1.43-.36,2.09-1.01-2.18.25-4.09-.27-6.01-1.16Z"/>
  <path class="st0" d="M160.55,8.33c.78,1.67.34,2.94-.85,3.7-1.14.73-2.37,1.18-3.76,1.28,1.83-1.34,3.51-2.82,4.61-4.98Z"/>
  <path class="st0" d="M160.67,60.89c.29.02.52.21.45.5-.05.21-.29.47-.49.51-.33.07-.52-.19-.51-.54,0-.33.2-.48.54-.47Z"/>
  <path class="st0" d="M101.49,52.05c-1.09-.44-2.05-.89-2.7-1.81-.39-.55-.37-1.6.04-2.11.1-.13.34-.21.51-.21.68,0,1.23.32,1.56.91.54.97.65,2.03.59,3.22Z"/>
  <path class="st0" d="M99.01,45.18c-.06-1.38-.23-2.64.79-3.65.23-.23.46-.56.85-.4.42.17.69.48.79.94.21,1.04-.37,2.25-1.33,2.71-.3.14-.63.23-1.1.4Z"/>
  <path class="st0" d="M96.3,47.1c-.59,1.64-1.91,2.14-3.35,1.27-.59-.35-.58-1.37.01-1.73.69-.42,2.18-.49,3.34.45Z"/>
</svg>