<?xml version="1.0" encoding="UTF-8"?>
<svg id="Layer_1" xmlns="http://www.w3.org/2000/svg" version="1.1" viewBox="0 0 500 500">
  <!-- Generator: Adobe Illustrator 29.3.0, SVG Export Plug-In . SVG Version: 2.1.0 Build 146)  -->
  <defs>
    <style>
      .st0 {
        fill: #fff;
      }
    </style>
  </defs>
  <path class="st0" d="M193.89,184.58c-7.49-3.04-15.6-4.25-23.9-4.05-5.27,0-9.92,0-13.77.2-4.05-.2-6.89,0-8.3.2v68.06c2.84.2,5.47.41,7.9.41h10.73c7.9,0,15.8-1.22,23.29-3.65,6.48-1.82,12.15-5.67,16.61-10.74,4.25-5.06,6.28-11.95,6.28-20.86.2-6.28-1.42-12.56-4.66-18.03-3.44-5.27-8.3-9.32-14.18-11.55Z"/>
  <path class="st0" d="M414.52,0H85.48C38.27,0,0,38.27,0,85.48v329.04C0,461.73,38.27,500,85.48,500h329.04c47.21,0,85.48-38.27,85.48-85.48V85.48C500,38.27,461.73,0,414.52,0ZM244.73,256.08c-8.1,11.34-19.44,19.85-32.61,24.71-13.77,5.06-28.96,6.89-45.57,6.89-4.86,0-8.1,0-10.13-.2-2.02-.2-4.86-.2-8.71-.2v65.02c.2,1.42-.81,2.63-2.23,2.84h-39.29c-1.62,0-2.43-.81-2.43-2.63v-208.42c0-1.42.61-2.23,2.02-2.23,3.44,0,6.68,0,11.34-.2,4.86-.2,9.93-.2,15.39-.41,5.47-.2,11.34-.2,17.62-.41s12.36-.2,18.43-.2c16.61,0,30.38,2.03,41.72,6.28,10.13,3.44,19.45,9.11,27.14,16.61,6.48,6.48,11.55,14.38,14.79,23.09,3.04,8.51,4.66,17.22,4.66,26.33,0,17.42-4.05,31.8-12.15,43.14ZM388.33,334.87c-5.67,8.1-13.57,14.38-22.69,18.03-9.93,4.25-22.08,6.48-36.66,6.48-9.32,0-18.43-.81-27.55-2.63-7.09-1.22-14.18-3.44-20.66-6.48-1.42-.81-2.43-2.23-2.23-3.85v-35.24c0-.61.2-1.42.81-1.82s1.21-.2,1.82.2c7.9,4.66,16.2,7.9,25.12,9.92,7.7,2.03,15.8,3.04,23.9,3.04s13.17-1.01,16.81-2.84c3.24-1.42,5.47-4.86,5.47-8.51,0-2.84-1.62-5.47-4.86-8.1-3.24-2.63-9.93-5.67-19.85-9.52-10.33-3.65-19.85-8.51-28.76-14.58-6.28-4.46-11.55-10.33-15.39-17.22-3.24-6.48-4.86-13.57-4.66-20.66,0-8.71,2.43-17.01,6.89-24.51,5.06-8.1,12.56-14.58,21.27-18.63,9.52-4.86,21.47-7.09,35.85-7.09,8.3,0,16.81.61,25.12,1.82,6.08.81,11.95,2.43,17.42,4.66.81.2,1.62,1.01,2.03,1.82.2.81.41,1.62.41,2.43v33.02c0,.81-.41,1.62-1.01,2.03-1.82.41-2.84.41-3.65,0-6.08-3.24-12.56-5.47-19.44-6.89-7.49-1.62-14.99-2.63-22.69-2.63-4.05-.2-8.3.41-12.15,1.42-2.63.61-4.86,2.03-6.28,4.05-1.01,1.62-1.62,3.65-1.62,5.47s.81,3.65,2.03,5.27c1.82,2.23,4.25,4.05,6.89,5.47,4.66,2.43,9.52,4.66,14.38,6.68,10.94,3.65,21.47,8.71,31.19,14.79,6.68,4.25,12.15,9.92,16,16.81,3.24,6.48,4.86,13.57,4.66,20.86.2,9.52-2.63,19.04-7.9,26.94Z"/>
</svg>